<svg width="166" height="50" viewBox="0 0 166 50" fill="none" xmlns="http://www.w3.org/2000/svg">
<path d="M28.176 3.872V9.392H18.432V38H11.184V9.392H1.44V3.872H28.176ZM33.9968 38H26.9887V14.288H33.3727L33.7567 16.064C34.5247 15.232 35.4047 14.608 36.3967 14.192C37.4208 13.776 38.4448 13.568 39.4688 13.568C40.0448 13.568 40.7008 13.648 41.4368 13.808C42.2048 13.968 42.9248 14.272 43.5968 14.72V20.48C42.5728 20.064 41.6607 19.76 40.8607 19.568C40.0607 19.344 39.2927 19.232 38.5568 19.232C37.6607 19.264 36.8287 19.424 36.0608 19.712C35.2927 20 34.6047 20.464 33.9968 21.104V38ZM64.8304 21.392V31.424C64.8304 31.968 64.8784 32.4 64.9744 32.72C65.1024 33.04 65.4544 33.2 66.0304 33.2C66.3184 33.2 66.6064 33.168 66.8944 33.104C67.1824 33.04 67.5024 32.944 67.8544 32.816L68.5744 37.04C67.9984 37.488 67.2624 37.856 66.3664 38.144C65.4704 38.464 64.5904 38.624 63.7264 38.624C62.7344 38.624 61.8384 38.464 61.0384 38.144C60.2384 37.824 59.5984 37.328 59.1184 36.656C58.0944 37.264 56.9264 37.744 55.6144 38.096C54.3024 38.448 52.7984 38.624 51.1024 38.624C48.1264 38.624 46.0144 37.904 44.7664 36.464C43.5504 34.992 42.9424 33.2 42.9424 31.088C42.9104 28.24 43.5504 26.272 44.8624 25.184C46.1744 24.064 48.1904 23.36 50.9104 23.072C51.5504 23.008 52.1584 22.96 52.7344 22.928C53.3104 22.896 53.8704 22.864 54.4144 22.832C54.9904 22.8 55.5504 22.784 56.0944 22.784C56.6384 22.784 57.2144 22.768 57.8224 22.736V21.776C57.8224 20.912 57.5344 20.256 56.9584 19.808C56.4144 19.328 55.4704 19.088 54.1264 19.088C53.3584 19.088 52.6384 19.136 51.9664 19.232C51.3264 19.296 50.6864 19.392 50.0464 19.52C49.4064 19.616 48.7504 19.744 48.0784 19.904C47.4384 20.064 46.7504 20.224 46.0144 20.384L45.0544 15.056C46.0784 14.8 46.9744 14.576 47.7424 14.384C48.5104 14.192 49.2144 14.048 49.8544 13.952C50.5264 13.824 51.1824 13.728 51.8224 13.664C52.4944 13.6 53.2464 13.568 54.0784 13.568C56.0944 13.568 57.7904 13.712 59.1664 14C60.5424 14.256 61.6464 14.704 62.4784 15.344C63.3104 15.952 63.9024 16.752 64.2544 17.744C64.6384 18.736 64.8304 19.952 64.8304 21.392ZM57.8224 31.28V27.824C56.6704 27.856 55.5984 27.904 54.6064 27.968C53.6464 28.032 52.6864 28.112 51.7264 28.208C50.8304 28.336 50.2704 28.688 50.0464 29.264C49.8224 29.84 49.7264 30.416 49.7584 30.992C49.7584 31.6 49.9024 32.128 50.1904 32.576C50.4784 33.024 51.1984 33.248 52.3504 33.248C53.2144 33.248 54.0784 33.136 54.9424 32.912C55.8384 32.688 56.7984 32.144 57.8224 31.28ZM82.5169 38H75.3169C72.5649 34.32 70.5969 30.96 69.4129 27.92C68.2289 24.848 67.6369 21.872 67.6369 18.992V14.288H74.4529V18.944C74.4529 20.992 74.7889 23.136 75.4609 25.376C76.1329 27.616 77.2849 29.968 78.9169 32.432C80.5489 29.936 81.7009 27.584 82.3729 25.376C83.0449 23.136 83.3809 20.992 83.3809 18.944V14.288H90.1969V18.944C90.1969 21.824 89.5889 24.832 88.3729 27.968C87.1569 31.104 85.2049 34.448 82.5169 38ZM104.011 33.056C104.971 33.056 106.171 32.928 107.611 32.672C109.083 32.384 110.459 31.92 111.739 31.28L113.419 36.032C112.235 36.8 110.795 37.424 109.099 37.904C107.403 38.384 105.707 38.624 104.011 38.624C101.867 38.624 99.9795 38.432 98.3475 38.048C96.7475 37.664 95.4195 36.992 94.3635 36.032C93.2755 35.072 92.4595 33.792 91.9155 32.192C91.4035 30.56 91.1475 28.512 91.1475 26.048C91.1475 21.44 92.1875 18.192 94.2675 16.304C96.3475 14.416 99.3235 13.472 103.195 13.472C106.875 13.472 109.595 14.256 111.355 15.824C113.147 17.36 114.091 19.424 114.187 22.016C114.219 23.36 114.027 24.464 113.611 25.328C113.195 26.192 112.587 26.88 111.787 27.392C110.987 27.904 110.043 28.256 108.955 28.448C107.867 28.608 106.683 28.688 105.403 28.688H98.2995C98.2995 30.288 98.6835 31.424 99.4515 32.096C100.219 32.736 101.739 33.056 104.011 33.056ZM103.243 18.992C101.707 18.992 100.523 19.408 99.6915 20.24C98.8915 21.04 98.4755 22.096 98.4435 23.408H105.403C106.075 23.408 106.539 23.232 106.795 22.88C107.051 22.528 107.179 22.064 107.179 21.488C107.147 20.752 106.795 20.16 106.123 19.712C105.483 19.232 104.523 18.992 103.243 18.992ZM116.415 2.864H123.327V31.712C123.327 32.224 123.407 32.592 123.567 32.816C123.759 33.008 124.079 33.104 124.527 33.104C124.911 33.104 125.343 33.072 125.823 33.008C126.335 32.912 126.799 32.768 127.215 32.576L127.791 37.328C127.119 37.776 126.255 38.096 125.199 38.288C124.175 38.512 123.231 38.624 122.367 38.624C121.087 38.624 120.047 38.416 119.247 38C118.479 37.616 117.887 37.088 117.471 36.416C117.023 35.776 116.735 35.04 116.607 34.208C116.479 33.344 116.415 32.48 116.415 31.616V2.864ZM128.758 2.864H135.67V31.712C135.67 32.224 135.75 32.592 135.91 32.816C136.102 33.008 136.422 33.104 136.87 33.104C137.254 33.104 137.686 33.072 138.166 33.008C138.678 32.912 139.142 32.768 139.558 32.576L140.134 37.328C139.462 37.776 138.598 38.096 137.542 38.288C136.518 38.512 135.574 38.624 134.71 38.624C133.43 38.624 132.39 38.416 131.59 38C130.822 37.616 130.23 37.088 129.814 36.416C129.366 35.776 129.078 35.04 128.95 34.208C128.822 33.344 128.758 32.48 128.758 31.616V2.864ZM162.845 39.44C162.845 41.328 162.509 42.928 161.837 44.24C161.165 45.552 160.285 46.608 159.197 47.408C158.109 48.208 156.861 48.8 155.453 49.184C154.045 49.568 152.589 49.76 151.085 49.76C149.709 49.76 148.365 49.728 147.053 49.664C145.741 49.632 144.685 49.584 143.885 49.52V43.76C145.229 43.888 146.429 43.952 147.485 43.952C148.573 43.984 149.773 44 151.085 44C152.333 44 153.437 43.648 154.397 42.944C155.357 42.272 155.837 41.024 155.837 39.2V36.416C155.069 37.184 154.061 37.744 152.813 38.096C151.565 38.448 150.445 38.624 149.453 38.624C146.637 38.624 144.381 37.936 142.685 36.56C140.989 35.152 140.141 32.832 140.141 29.6V14.288H147.149V28.016C147.149 29.872 147.421 31.184 147.965 31.952C148.509 32.72 149.597 33.104 151.229 33.104C152.413 33.104 153.421 32.752 154.253 32.048C155.117 31.344 155.645 30.72 155.837 30.176V14.288H162.845V39.44Z" fill="#34C759"/>
</svg>
